<mxfile host="app.diagrams.net" modified="2022-05-14T09:54:16.124Z" agent="5.0 (Macintosh; Intel Mac OS X 10_15_7) AppleWebKit/537.36 (KHTML, like Gecko) Chrome/101.0.4951.64 Safari/537.36" etag="rruMgDjIzA5Ily-UrwrI" version="18.0.0" type="github">
  <diagram id="WUahGxOWOcRJzkmeIZj4" name="cflag">
    <mxGraphModel dx="591" dy="404" grid="1" gridSize="10" guides="1" tooltips="1" connect="1" arrows="1" fold="1" page="1" pageScale="1" pageWidth="827" pageHeight="1169" math="0" shadow="0">
      <root>
        <mxCell id="0" />
        <mxCell id="1" parent="0" />
        <mxCell id="n200EDo4t4nYnCnLmRdz-15" value="" style="rounded=1;whiteSpace=wrap;html=1;dashed=1;" vertex="1" parent="1">
          <mxGeometry x="520" y="160" width="280" height="120" as="geometry" />
        </mxCell>
        <mxCell id="n200EDo4t4nYnCnLmRdz-4" value="" style="edgeStyle=orthogonalEdgeStyle;rounded=0;orthogonalLoop=1;jettySize=auto;html=1;curved=1;entryX=0;entryY=0.5;entryDx=0;entryDy=0;" edge="1" parent="1" source="n200EDo4t4nYnCnLmRdz-1" target="n200EDo4t4nYnCnLmRdz-3">
          <mxGeometry relative="1" as="geometry" />
        </mxCell>
        <mxCell id="n200EDo4t4nYnCnLmRdz-6" style="edgeStyle=orthogonalEdgeStyle;curved=1;rounded=0;orthogonalLoop=1;jettySize=auto;html=1;entryX=0;entryY=0.5;entryDx=0;entryDy=0;" edge="1" parent="1" source="n200EDo4t4nYnCnLmRdz-1" target="n200EDo4t4nYnCnLmRdz-5">
          <mxGeometry relative="1" as="geometry" />
        </mxCell>
        <mxCell id="n200EDo4t4nYnCnLmRdz-8" style="edgeStyle=orthogonalEdgeStyle;curved=1;rounded=0;orthogonalLoop=1;jettySize=auto;html=1;entryX=0;entryY=0.5;entryDx=0;entryDy=0;" edge="1" parent="1" source="n200EDo4t4nYnCnLmRdz-1" target="n200EDo4t4nYnCnLmRdz-7">
          <mxGeometry relative="1" as="geometry" />
        </mxCell>
        <mxCell id="n200EDo4t4nYnCnLmRdz-1" value="cflag" style="rounded=1;whiteSpace=wrap;html=1;" vertex="1" parent="1">
          <mxGeometry x="40" y="320" width="80" height="40" as="geometry" />
        </mxCell>
        <mxCell id="n200EDo4t4nYnCnLmRdz-2" value="&lt;h1&gt;cflag&lt;/h1&gt;&lt;p&gt;cflag是用c++实现的命令参数解析库，功能类似go的&lt;a href=&quot;https://github.com/ogier/pflag&quot;&gt;orier/pflag&lt;/a&gt;；&lt;/p&gt;" style="text;html=1;strokeColor=#666666;fillColor=#f5f5f5;spacing=5;spacingTop=-20;whiteSpace=wrap;overflow=hidden;rounded=0;dashed=1;fontColor=#333333;" vertex="1" parent="1">
          <mxGeometry x="40" y="120" width="200" height="90" as="geometry" />
        </mxCell>
        <mxCell id="n200EDo4t4nYnCnLmRdz-10" value="" style="edgeStyle=orthogonalEdgeStyle;curved=1;rounded=0;orthogonalLoop=1;jettySize=auto;html=1;entryX=0;entryY=0.5;entryDx=0;entryDy=0;" edge="1" parent="1" source="n200EDo4t4nYnCnLmRdz-3" target="n200EDo4t4nYnCnLmRdz-9">
          <mxGeometry relative="1" as="geometry" />
        </mxCell>
        <mxCell id="n200EDo4t4nYnCnLmRdz-3" value="功能" style="rounded=1;whiteSpace=wrap;html=1;" vertex="1" parent="1">
          <mxGeometry x="200" y="240" width="80" height="40" as="geometry" />
        </mxCell>
        <mxCell id="n200EDo4t4nYnCnLmRdz-5" value="方案" style="rounded=1;whiteSpace=wrap;html=1;" vertex="1" parent="1">
          <mxGeometry x="200" y="320" width="80" height="40" as="geometry" />
        </mxCell>
        <mxCell id="n200EDo4t4nYnCnLmRdz-7" value="时间" style="rounded=1;whiteSpace=wrap;html=1;" vertex="1" parent="1">
          <mxGeometry x="200" y="400" width="80" height="40" as="geometry" />
        </mxCell>
        <mxCell id="n200EDo4t4nYnCnLmRdz-16" value="" style="edgeStyle=orthogonalEdgeStyle;curved=1;rounded=0;orthogonalLoop=1;jettySize=auto;html=1;" edge="1" parent="1" source="n200EDo4t4nYnCnLmRdz-9" target="n200EDo4t4nYnCnLmRdz-15">
          <mxGeometry relative="1" as="geometry" />
        </mxCell>
        <mxCell id="n200EDo4t4nYnCnLmRdz-9" value="参考" style="rounded=1;whiteSpace=wrap;html=1;" vertex="1" parent="1">
          <mxGeometry x="360" y="160" width="80" height="40" as="geometry" />
        </mxCell>
        <mxCell id="n200EDo4t4nYnCnLmRdz-11" value="&lt;h3 style=&quot;margin: 1em 0px 0.87em; padding: 0px; color: rgb(51, 51, 51); font-family: &amp;quot;Fira Sans&amp;quot;, sans; text-align: left;&quot; class=&quot;section&quot;&gt;&lt;font style=&quot;font-size: 11px; font-weight: normal;&quot;&gt;&lt;a href=&quot;https://www.gnu.org/prep/standards/html_node/Command_002dLine-Interfaces.html&quot;&gt;4.8 Standards for Command Line Interfaces&lt;/a&gt;&lt;/font&gt;&lt;/h3&gt;" style="text;html=1;strokeColor=none;fillColor=none;align=center;verticalAlign=middle;whiteSpace=wrap;rounded=0;dashed=1;" vertex="1" parent="1">
          <mxGeometry x="520" y="160" width="270" height="30" as="geometry" />
        </mxCell>
      </root>
    </mxGraphModel>
  </diagram>
</mxfile>
